<svg width="16" height="16" viewBox="0 0 16 16" fill="none" xmlns="http://www.w3.org/2000/svg">
<path d="M6.66668 2.66663L5.33334 3.99996" stroke="#6B7280" stroke-linecap="round" stroke-linejoin="round"/>
<path d="M11.3333 12.6666V14" stroke="#6B7280" stroke-linecap="round" stroke-linejoin="round"/>
<path d="M1.33334 8H14.6667" stroke="#6B7280" stroke-linecap="round" stroke-linejoin="round"/>
<path d="M4.66666 12.6666V14" stroke="#6B7280" stroke-linecap="round" stroke-linejoin="round"/>
<path d="M5.99999 3.33336L5.08066 2.41403C4.88787 2.22034 4.64308 2.08667 4.37591 2.02919C4.10874 1.97171 3.83064 1.99288 3.57525 2.09014C3.31986 2.1874 3.09813 2.35659 2.93688 2.57722C2.77563 2.79786 2.68177 3.0605 2.66666 3.33336V11.3334C2.66666 11.687 2.80713 12.0261 3.05718 12.2762C3.30723 12.5262 3.64637 12.6667 3.99999 12.6667H12C12.3536 12.6667 12.6928 12.5262 12.9428 12.2762C13.1928 12.0261 13.3333 11.687 13.3333 11.3334V8.00003" stroke="#6B7280" stroke-linecap="round" stroke-linejoin="round"/>
</svg>
