<svg width="16" height="16" viewBox="0 0 16 16" fill="none" xmlns="http://www.w3.org/2000/svg">
<path d="M12.6667 11.3333H14C14.4 11.3333 14.6667 11.0666 14.6667 10.6666V8.66663C14.6667 8.06663 14.2 7.53329 13.6667 7.39996C12.4667 7.06663 10.6667 6.66663 10.6667 6.66663C10.6667 6.66663 9.80001 5.73329 9.20001 5.13329C8.86668 4.86663 8.46668 4.66663 8.00001 4.66663H3.33334C2.93334 4.66663 2.60001 4.93329 2.40001 5.26663L1.46668 7.19996C1.3784 7.45744 1.33334 7.72776 1.33334 7.99996V10.6666C1.33334 11.0666 1.60001 11.3333 2.00001 11.3333H3.33334" stroke="#6B7280" stroke-linecap="round" stroke-linejoin="round"/>
<path d="M4.66668 12.6667C5.40306 12.6667 6.00001 12.0697 6.00001 11.3333C6.00001 10.597 5.40306 10 4.66668 10C3.9303 10 3.33334 10.597 3.33334 11.3333C3.33334 12.0697 3.9303 12.6667 4.66668 12.6667Z" stroke="#6B7280" stroke-linecap="round" stroke-linejoin="round"/>
<path d="M6 11.3334H10" stroke="#6B7280" stroke-linecap="round" stroke-linejoin="round"/>
<path d="M11.3333 12.6667C12.0697 12.6667 12.6667 12.0697 12.6667 11.3333C12.6667 10.597 12.0697 10 11.3333 10C10.597 10 10 10.597 10 11.3333C10 12.0697 10.597 12.6667 11.3333 12.6667Z" stroke="#6B7280" stroke-linecap="round" stroke-linejoin="round"/>
</svg>
